<svg width="310" height="135" viewBox="0 0 310 135" fill="none" xmlns="http://www.w3.org/2000/svg">
<path fill-rule="evenodd" clip-rule="evenodd" d="M0.745003 69.92C33.127 25.082 161.832 105.191 190.939 75.141C228.827 36.026 168.383 -3.892 138.313 24.54C184.368 -32.535 250.829 25.009 231.421 75.279C260.267 64.903 279.538 49.529 309.905 67.644C253.826 71.466 238.679 101.87 193.443 108.908C140.529 120.469 59.99 57.455 0.745003 69.92Z" fill="#005F70"/>
<path fill-rule="evenodd" clip-rule="evenodd" d="M309.906 78.028C251.895 77.986 238.68 112.255 193.444 119.292C140.529 130.853 50.331 61.077 0.745003 80.304C61.923 73.635 140.529 144.377 193.444 132.816C238.681 125.778 258.657 85.714 309.906 78.028Z" fill="#005F70"/>
</svg>
